<?xml version="1.0" standalone="no"?><!DOCTYPE svg PUBLIC "-//W3C//DTD SVG 1.1//EN" "http://www.w3.org/Graphics/SVG/1.1/DTD/svg11.dtd">
<svg t="1599020432037" class="icon" viewBox="0 0 1024 1024" version="1.1" xmlns="http://www.w3.org/2000/svg" p-id="1990" width="32" height="32">
    <defs>
        <style type="text/css"></style>
    </defs>
    <path d="M637.44 274.432c-12.8-6.144-28.16-0.512-34.304 11.776-6.144 12.8-0.512 28.16 11.776 34.304 84.48 40.448 138.752 126.976 138.752 220.672 0 134.656-109.568 244.224-244.224 244.224S265.216 675.84 265.216 541.184c0-93.696 54.272-180.224 138.752-220.672 12.8-6.144 17.92-21.504 11.776-34.304-6.144-12.8-21.504-17.92-34.304-11.776-101.888 49.152-167.936 153.6-167.936 266.752 0 162.816 132.608 295.424 295.424 295.424 162.816 0 295.424-132.608 295.424-295.424 1.024-113.152-65.024-218.112-166.912-266.752z"
          p-id="1991" fill="#e6e6e6"></path>
    <path d="M509.44 461.312c14.336 0 25.6-11.264 25.6-25.6V207.872c0-14.336-11.264-25.6-25.6-25.6s-25.6 11.264-25.6 25.6v227.84c0 14.336 11.776 25.6 25.6 25.6z" p-id="1992" fill="#e6e6e6"></path>
</svg>