<?xml version="1.0" standalone="no"?><!DOCTYPE svg PUBLIC "-//W3C//DTD SVG 1.1//EN" "http://www.w3.org/Graphics/SVG/1.1/DTD/svg11.dtd">
<svg t="1599020066114" class="icon" viewBox="0 0 1024 1024" version="1.1" xmlns="http://www.w3.org/2000/svg" p-id="1524" width="32" height="32">
    <defs>
        <style type="text/css"></style>
    </defs>
    <path d="M418.4064 517.6832a25.61536 25.61536 0 0 0-36.1984 0l-38.9632 38.9632-66.9696-66.9184c-54.272-54.272-54.272-142.5408 0-196.8128l16.64-16.64c54.272-54.272 142.5408-54.272 196.8128 0l66.9184 66.9184-37.7344 37.7344a25.61536 25.61536 0 0 0 0 36.1984 25.61536 25.61536 0 0 0 36.1984 0l55.808-55.808c4.8128-4.8128 7.4752-11.3152 7.4752-18.1248s-2.7136-13.312-7.4752-18.1248l-85.0432-85.0432c-74.24-74.24-194.9696-74.24-269.2096 0l-16.64 16.64c-74.24 74.24-74.24 195.0208 0 269.2096l85.0432 85.0432c4.8128 4.8128 11.3152 7.4752 18.1248 7.4752s13.312-2.7136 18.1248-7.4752l57.088-57.088c9.984-9.9328 9.984-26.1632 0-36.1472zM783.9232 498.0736L698.88 413.0304a25.61536 25.61536 0 0 0-36.1984 0l-55.808 55.808a25.61536 25.61536 0 0 0 0 36.1984 25.61536 25.61536 0 0 0 36.1984 0l37.7344-37.7344 66.9184 66.9184c54.272 54.272 54.272 142.5408 0 196.8128l-16.64 16.64c-54.272 54.272-142.5408 54.272-196.8128 0l-66.9184-66.9184 38.9632-38.9632a25.61536 25.61536 0 0 0 0-36.1984 25.61536 25.61536 0 0 0-36.1984 0l-57.088 57.088c-4.8128 4.8128-7.4752 11.3152-7.4752 18.1248s2.7136 13.312 7.4752 18.1248l85.0432 85.0432c37.12 37.12 85.8624 55.6544 134.6048 55.6544s97.4848-18.5344 134.6048-55.6544l16.64-16.64c74.24-74.2912 74.24-195.072 0-269.2608z"
          p-id="1525" fill="#e6e6e6"></path>
    <path d="M377.3952 377.3952a25.61536 25.61536 0 0 0 0 36.1984l233.0112 233.0112c5.0176 5.0176 11.5712 7.4752 18.1248 7.4752s13.1072-2.5088 18.1248-7.4752a25.61536 25.61536 0 0 0 0-36.1984L413.5936 377.3952a25.61536 25.61536 0 0 0-36.1984 0z" p-id="1526" fill="#e6e6e6"></path>
</svg>